<?xml version="1.0" encoding="UTF-8" standalone="no"?>
<!-- Created with Inkscape (http://www.inkscape.org/) -->

<svg
   xmlns:dc="http://purl.org/dc/elements/1.1/"
   xmlns:cc="http://creativecommons.org/ns#"
   xmlns:rdf="http://www.w3.org/1999/02/22-rdf-syntax-ns#"
   xmlns:svg="http://www.w3.org/2000/svg"
   xmlns="http://www.w3.org/2000/svg"
   xmlns:sodipodi="http://sodipodi.sourceforge.net/DTD/sodipodi-0.dtd"
   xmlns:inkscape="http://www.inkscape.org/namespaces/inkscape"
   id="svg3336"
   version="1.1"
   inkscape:version="0.91 r13725"
   width="1173.75"
   height="395.625"
   viewBox="0 0 1173.75 395.625"
   sodipodi:docname="SharkSilhouette.svg">
  <metadata
     id="metadata3342">
    <rdf:RDF>
      <cc:Work
         rdf:about="">
        <dc:format>image/svg+xml</dc:format>
        <dc:type
           rdf:resource="http://purl.org/dc/dcmitype/StillImage" />
        <dc:title></dc:title>
      </cc:Work>
    </rdf:RDF>
  </metadata>
  <defs
     id="defs3340" />
  <sodipodi:namedview
     pagecolor="#ffffff"
     bordercolor="#666666"
     borderopacity="1"
     objecttolerance="10"
     gridtolerance="10"
     guidetolerance="10"
     inkscape:pageopacity="0"
     inkscape:pageshadow="2"
     inkscape:window-width="1600"
     inkscape:window-height="837"
     id="namedview3338"
     showgrid="false"
     inkscape:zoom="3.9054313"
     inkscape:cx="-10.242147"
     inkscape:cy="197.8125"
     inkscape:window-x="-8"
     inkscape:window-y="-8"
     inkscape:window-maximized="1"
     inkscape:current-layer="svg3336" />
  <path
     style="fill:#fff"
     d="m 380.85308,394.63259 c -5.84019,-1.1517 -15.67425,-6.67612 -23.43602,-13.16552 C 344.16417,370.38672 324.50703,343.99928 307.90286,315 c -8.54779,-14.92878 -25.75277,-48.67928 -33.93153,-66.5625 -6.83377,-14.94237 -4.02357,-13.50721 -29.28383,-14.95515 -76.37158,-4.37767 -130.67876,-14.92134 -163.752429,-31.79232 -6.312933,-3.22025 -9.760963,-5.67927 -8.024347,-5.72272 0.655585,-0.0164 1.673844,-1.0874 2.262799,-2.38001 1.023973,-2.24738 1.149287,-2.2792 2.864158,-0.72727 1.712136,1.54947 1.872349,1.5182 3.538409,-0.69055 1.553438,-2.05943 1.813954,-2.134 2.372295,-0.67898 0.881424,2.29695 2.915913,2.03417 3.568389,-0.4609 0.542041,-2.07276 0.56347,-2.07529 1.984342,-0.23437 1.379309,1.78707 1.488685,1.7936 2.752633,0.16429 0.833019,-1.07381 1.541692,-1.33194 1.930332,-0.70312 0.337744,0.54648 1.408032,0.9936 2.378419,0.9936 1.906444,0 3.383091,-1.61691 2.38665,-2.61335 -0.337481,-0.33748 -0.963244,-0.0479 -1.390594,0.64361 -0.614522,0.99431 -0.985059,0.89061 -1.772015,-0.4959 -0.821935,-1.44816 -1.30786,-1.56184 -2.793478,-0.65357 -1.444518,0.88314 -2.098701,0.79928 -3.32409,-0.42611 -1.409179,-1.40917 -1.624608,-1.39027 -2.822253,0.24761 -1.255986,1.71766 -1.317011,1.70898 -1.947345,-0.27703 -0.784467,-2.47164 -1.9682,-2.64253 -2.837472,-0.40964 -0.572011,1.46932 -0.836592,1.39795 -2.533914,-0.68358 -1.820307,-2.23235 -1.945742,-2.2551 -3.173684,-0.5758 -1.21735,1.66483 -1.332299,1.63028 -2.404372,-0.72266 -0.749292,-1.64451 -1.859356,-2.47108 -3.318631,-2.47108 -7.389352,0 -61.0864514,-15.82852 -65.7676565,-19.38662 -8.7303334,-6.63576 -4.57871817,-15.67077 10.1927985,-22.18223 4.69449,-2.06939 7.764453,-3.0659 25.256056,-8.19808 8.829719,-2.59071 27.575828,-6.48307 31.223322,-6.48307 1.721592,0 4.998289,-0.61328 7.281548,-1.36285 4.346524,-1.42692 30.33135,-5.6216 43.99513,-7.10204 4.38281,-0.47488 10.28906,-1.28313 13.125,-1.79612 23.44829,-4.24155 123.44022,-13.91982 210.33921,-20.358856 l 47.00454,-3.482935 23.02762,-23.455545 c 12.6652,-12.90055 23.28668,-23.036389 23.6033,-22.524087 0.31661,0.512302 -0.87665,4.27136 -2.65171,8.353461 -1.77505,4.082101 -3.08732,7.842163 -2.91614,8.355692 0.17118,0.51353 3.8692,-2.444134 8.21784,-6.572587 25.44327,-24.155056 51.11005,-42.728039 71.12526,-51.4676374 8.17138,-3.5680133 14.84462,-5.67945691 15.59101,-4.93306659 0.28399,0.28398713 -0.39927,5.09767339 -1.51835,10.69708099 -2.85046,14.262467 -3.57298,37.841646 -1.45172,47.37628 3.14962,14.156959 10.16807,24.255962 20.49318,29.488091 2.5492,1.291774 4.35575,2.636723 4.01458,2.988775 -0.34119,0.352052 -9.76985,2.362276 -20.9526,4.467166 l -20.33227,3.827072 16.40625,0.65565 c 43.14347,1.724166 98.03979,6.951936 144.84248,13.793356 10.3118,1.50733 20.11535,2.7406 21.78567,2.7406 6.2902,0 32.21985,-9.88087 37.58953,-14.32405 0.68691,-0.56839 2.96388,-0.93224 5.05993,-0.80857 3.35184,0.19778 4.14153,-0.17613 6.55446,-3.103433 4.16895,-5.057672 14.77437,-10.674874 14.80728,-7.842748 0.0382,3.291422 1.39767,3.599679 7.06815,1.602766 6.08431,-2.142646 16.52677,-4.544382 19.87062,-4.570186 1.71462,-0.01323 2.10938,0.50144 2.10938,2.750076 0,8.025048 5.28639,21.996475 10.19545,26.945605 1.43577,1.44748 4.36835,3.81828 6.51685,5.26843 4.50663,3.04182 5.89894,6.55939 3.53347,8.92708 -1.20312,1.20424 -3.96436,1.66847 -12.07467,2.03003 l -10.51485,0.46875 10.3125,1.78199 c 14.47915,2.50198 42.23797,9.52943 46.57857,11.79188 5.10973,2.66334 6.19403,2.43504 10.68233,-2.24921 2.64611,-2.76164 6.42363,-5.22999 11.32367,-7.39925 4.04411,-1.79034 17.26699,-7.9888 29.38418,-13.77435 106.10738,-50.662751 184.177,-78.644373 240.9375,-86.356492 9.6761,-1.314704 39.7129,-1.737907 40.8749,-0.575906 0.3942,0.394187 -1.6822,2.854826 -4.6142,5.468089 -5.8552,5.218646 -13.7351,14.604608 -20.7793,24.750749 -2.5059,3.609375 -4.8496,6.907945 -5.2083,7.330157 -0.3587,0.422211 -5.6053,-0.13252 -11.6592,-1.232738 -6.0538,-1.100217 -11.5285,-1.800262 -12.1659,-1.555657 -0.6374,0.244605 -27.9076,21.480285 -60.6004,47.190398 -32.6927,25.71011 -64.32769,50.3994 -70.29976,54.86507 -18.89972,14.13226 -29.7824,27.73555 -31.34747,39.18402 -0.45075,3.29684 0.15807,6.67717 2.78579,15.46875 6.04818,20.2349 15.036,43.84585 23.82131,62.57812 3.5414,7.55088 4.37025,10.07813 3.30562,10.07813 -3.76837,0 -43.7415,-21.79341 -62.97501,-34.33403 -32.01236,-20.87273 -64.14157,-50.08744 -71.89241,-65.37092 -2.35906,-4.65174 -8.73086,-10.24377 -13.44487,-11.79953 -3.41666,-1.1276 -5.6453,-0.81235 -29.35844,4.15291 -14.11361,2.95523 -26.18591,5.65785 -26.82734,6.00584 -0.64143,0.34798 8.11248,3.3163 19.45312,6.59625 11.34065,3.27995 20.61936,6.26651 20.61936,6.63681 0,0.37029 -7.27734,2.52291 -16.17188,4.78359 l -16.17187,4.11033 -1.16798,11.17425 c -1.32948,12.71926 -2.57625,15.5445 -6.85973,15.5445 -4.00794,0 -9.11992,-2.85912 -17.00971,-9.51351 -32.03676,-27.02035 -67.84216,-35.4697 -118.23732,-27.90163 l -7.33725,1.10187 7.04688,3.06426 c 3.87578,1.68533 8.00969,3.73864 9.18647,4.56288 1.57426,1.10267 4.37575,1.50079 10.60287,1.50678 9.6389,0.009 27.61175,1.98766 37.99452,4.1823 9.65081,2.03991 22.5,6.01539 22.5,6.96139 0,0.91776 -12.15448,3.38715 -23.41291,4.75675 -4.36928,0.53152 -15.1271,0.97053 -23.90625,0.97557 -15.07395,0.008 -16.24392,0.14035 -21.02722,2.36699 -9.94795,4.6308 -17.48936,10.47253 -23.88139,18.49903 -6.23306,7.82688 -11.07693,11.93732 -14.06728,11.93732 -0.90628,0 -5.09892,-2.68812 -9.31699,-5.9736 -11.41473,-8.891 -27.81804,-19.39891 -41.1259,-26.3451 l -11.81518,-6.16708 -8.77032,1.96458 c -41.68785,9.33818 -88.48595,13.92527 -130.41094,12.7827 l -20.39062,-0.5557 0,3.30249 c 0,1.81636 -0.48978,4.21763 -1.08839,5.33615 -1.30995,2.44767 -3.04149,11.26794 -5.18988,26.43681 -1.22191,8.62728 -1.59904,18.13463 -1.61769,40.78125 -0.0244,29.63582 0.67365,39.37335 4.50291,62.8125 0.71603,4.38281 1.17299,8.11111 1.01548,8.2851 -0.52187,0.57648 -7.4337,1.98406 -9.34118,1.90232 -1.03125,-0.0442 -3.6708,-0.4345 -5.86567,-0.86733 z M 103.125,189.84375 c -0.6419,-0.77344 -1.58896,-1.40625 -2.10458,-1.40625 -0.52297,0 -0.42145,0.62181 0.22958,1.40625 0.6419,0.77344 1.58896,1.40625 2.10458,1.40625 0.52297,0 0.42145,-0.62181 -0.22958,-1.40625 z m 4.21875,0.46875 c 0.31868,-0.51563 0.15753,-0.9375 -0.3581,-0.9375 -0.51562,0 -1.19822,0.42187 -1.5169,0.9375 -0.31868,0.51562 -0.15753,0.9375 0.3581,0.9375 0.51562,0 1.19822,-0.42188 1.5169,-0.9375 z"
     id="path3346"
     inkscape:connector-curvature="0" />
</svg>
