<?xml version="1.0" encoding="utf-8"?>
<!-- Generator: Adobe Illustrator 18.1.1, SVG Export Plug-In . SVG Version: 6.00 Build 0)  -->
<svg version="1.1" id="Слой_1" xmlns="http://www.w3.org/2000/svg" xmlns:xlink="http://www.w3.org/1999/xlink" x="0px" y="0px"
	 viewBox="0 0 1024 299.511" enable-background="new 0 0 1024 299.511" xml:space="preserve">
<path fill="#fff"      d="
	M1018.062,33.789c0,0-63.592,12.773-96.125,39.432c0,0-35.185,22.653-40.607,26.268c0,0-36.118,28.045-47.415,38.438
	c0,0-14.896,12.215-33.874,16.734l-62.348-4.963c0,0-2.707-3.159,2.263-3.159l10.395-1.354c0,0-9.608-4.969-13.389-4.518
	c0,0-13.721-4.066-14.173-13.103c0,0-16.267,0-34.793,12.652c0,0-16.267-2.711-23.044-4.518c0,0-193.394-45.185-215.083-47.897
	c0,0,10.393-1.356,19.43-0.904c0,0,4.519-4.97-8.585-25.304c0,0-6.326-14.911-2.711-32.534c0,0,3.163-4.519,1.807-10.845
	c0,0,3.163-6.778,2.711-11.748c0,0-8.585-6.326-24.4,7.682c0,0-19.882,19.882-42.926,50.608c0,0-9.489,11.296-29.822,17.17
	c0,0-85.401-3.163-216.438,25.304L99.23,120.335c0,0-63.26,7.682-89.467,15.815c0,0-11.748,2.711,0,9.037
	c0,0,12.2,10.845,22.593,18.074c0,0,8.585,7.23,11.296,7.23c0,0,25.304,5.422,31.63,9.489c0,0-9.489,0.904-14.008,0
	c0,0-12.652,1.356,1.356,8.585s72.749,32.082,140.979,42.474c0,0,57.067,8.489,72.43,9.393c0,0,52.734,44.83,109.667,52.511
	c0,0,3.778,0.452,9.652-1.807c0,0,7.519-3.163-18.689-21.689c0,0-20.785-16.815-23.496-23.593c0,0,54.223,9.585,221.409-7.585
	l32.082,19.43c0,0,4.97,4.519,10.844-1.356l29.822-31.63c0,0,55.126-11.296,66.423-13.104c0,0,26.208,14.911,40.215,16.267
	c0,0,1.807-2.259,1.807-9.489c0,0,11.296-11.748,12.652-15.363c0,0-14.008,1.356-18.526-0.452c0,0,22.141-8.585,77.719-7.682
	c0,0,12.652,0.904,28.467,11.748c0,0,54.674,31.63,96.245,31.178c0,0,7.682,0-1.356-9.941l-42.023-50.704
	c0,0-4.97-8.489-1.452-14.17c0,0,60.645-74.741,71.489-87.844l0.452-4.511H988c0,0,4.724,0.541,14.487-17.388
	c0,0,6.557-11.421,13.575-13.681C1016.062,39.578,1024.002,32.468,1018.062,33.789z"/>
</svg>
