<?xml version="1.0" encoding="utf-8"?>
<!-- Generator: Adobe Illustrator 16.0.0, SVG Export Plug-In . SVG Version: 6.00 Build 0)  -->
<!DOCTYPE svg PUBLIC "-//W3C//DTD SVG 1.1//EN" "http://www.w3.org/Graphics/SVG/1.1/DTD/svg11.dtd" [
	<!ENTITY ns_flows "http://ns.adobe.com/Flows/1.0/">
	<!ENTITY ns_extend "http://ns.adobe.com/Extensibility/1.0/">
	<!ENTITY ns_ai "http://ns.adobe.com/AdobeIllustrator/10.0/">
	<!ENTITY ns_graphs "http://ns.adobe.com/Graphs/1.0/">
]>
<svg version="1.1" id="Layer_1" xmlns:x="&ns_extend;" xmlns:i="&ns_ai;" xmlns:graph="&ns_graphs;"
	 xmlns="http://www.w3.org/2000/svg" xmlns:xlink="http://www.w3.org/1999/xlink" xmlns:a="http://ns.adobe.com/AdobeSVGViewerExtensions/3.0/"
	 x="0px" y="0px" width="864px" height="864px" viewBox="0 0 864 864" enable-background="new 0 0 864 864" xml:space="preserve">
<path fill="#fff" d="M31.719,110.838C40.967,97.506,55.417,95.815,69.661,94.7
	c12.241-0.958,24.598-0.629,36.902-0.537c23.498,0.175,46.836-0.974,69.983-5.562c16.833-3.337,55.05,1.473,65.785,7.066
	c-9.288,0-19.747,0.219-30.194-0.054c-13.999-0.365-27.477,1.519-41,5.568c-21.734,6.509-44.238,4.174-66.536,3.651
	c-8.397-0.197-16.834,0.146-25.212,0.783c-3.349,0.255-6.587,1.971-11.933,3.678c17.088,12.126,32.268,22.898,47.447,33.67
	c0.684-0.389,1.368-0.777,2.052-1.166c-1.64-6.639-3.281-13.278-5.37-21.73c8.058,2.835,14.703,4.971,17.738,10.945
	c10.176,20.031,28.073,30.543,47.253,39.368c15.556,7.158,32.154,9.129,49.285,8.466c9.011-0.349,18.213,0.464,27.116,1.99
	c11.804,2.023,18.514,10.225,19.224,23.392c-6.571-4.066-12.164-7.526-17.756-10.986c0.334-0.552,0.668-1.105,1.002-1.658
	c-0.399,0.148-1.065,0.201-1.158,0.459c-3.355,9.368-5.927,9.758-12.987,1.981c-2.246-2.475-4.566-4.882-8.057-8.604
	c-0.572,6.078-0.893,9.478-1.341,14.234c-5.932-4.441-10.626-7.958-16.153-12.096c-0.587,3.999-0.957,6.521-1.458,9.928
	c-4.438-3.428-8.216-6.345-13.406-10.353c-0.596,5.104-0.993,8.493-1.598,13.679c-4.737-2.693-8.584-4.881-11.896-6.763
	c-1.209,2.915-2.547,6.138-3.886,9.36c-2.986-2.595-6.018-5.14-8.938-7.807c-1.442-1.318-2.676-2.863-5.556-5.99
	c-0.985,7.768-1.723,13.597-2.589,20.424c-5.987-4.538-11.551-8.756-18.432-13.972c0.871,8.251,1.534,14.552,2.333,22.125
	c-6.643-4.035-11.763-7.144-16.883-10.253c-0.522,0.536-1.044,1.073-1.566,1.61c0.477,3.026,1.265,6.043,1.357,9.081
	c0.133,4.417-0.387,8.85-0.352,13.274c0.041,5.137,0.382,10.272,0.592,15.408c0.86,0.045,1.719,0.091,2.579,0.136
	c0.548-1.262,1.38-2.477,1.603-3.793c2.25-13.297,11.97-19.293,23.494-21.663c21.545-4.428,43.297-7.989,65.083-11.053
	c8.629-1.214,17.582-0.219,26.384-0.037c1.464,0.031,2.907,1.052,6.295,2.366c-18.283,2.759-34.664,5.232-50.778,7.665
	c9.389,10.528,17.915,20.784,27.173,30.329c21.317,21.981,46.766,34.861,78.117,34.785c33.035-0.08,55.613-16.194,69.577-45.083
	c5.092-10.535,8.362-21.95,13.157-34.824c0.523,11.055,0.976,20.596,1.428,30.137c0.772,0.051,1.544,0.101,2.316,0.151
	c7.836-8.255,6.028-20.033,10.132-30.737c2.22,8.769,4.233,16.721,6.247,24.673c0.696-0.083,1.393-0.167,2.089-0.252
	c0.775-6.408,1.549-12.816,2.325-19.224c0.287-0.077,0.573-0.154,0.859-0.23c0.698,3.368,2.076,6.756,1.969,10.098
	c-0.396,12.429-0.283,25.004-2.283,37.209c-1.723,10.516-1.053,13.974,8.739,19.035c20.347,10.516,42.046,16.667,64.251,21.948
	c62.627,14.896,123.618,35.229,183.98,57.446c20.256,7.455,40.248,15.63,60.279,23.681c1.942,0.781,3.301,3.019,4.931,4.581
	c-2.096,1.095-4.3,3.294-6.271,3.102c-10.156-0.992-20.3-2.31-30.359-4.036c-51.538-8.846-103.059-17.795-154.564-26.83
	c-20.828-3.653-41.602-7.619-62.4-11.436c-2.812-0.516-5.631-0.992-9.136-0.29c5.683,4.915,11.366,9.831,17.049,14.746
	c-0.106,0.782-0.213,1.564-0.32,2.347c-7.076,1.884-14.07,4.187-21.242,5.578c-27.744,5.38-55.829,6.328-83.643,2.062
	c-25.32-3.884-50.396-9.642-75.335-15.595c-10.345-2.469-19.874-1.936-29.314,1.879c-24.449,9.881-48.757,20.111-73.136,30.166
	c-14.027,5.785-28.082,11.5-42.125,17.247c-2.736,0-5.472,0-8.208,0c-3.886-4.073-2.892-8.668-0.37-12.567
	c8.987-13.894,17.325-28.401,27.88-41.028c9.052-10.828,20.89-19.309,31.219-29.119c0.964-0.916,0.733-4.992-0.316-5.785
	c-3.773-2.851-8.104-4.977-12.279-7.279c-18.901-10.425-38.14-20.291-56.611-31.428c-10.272-6.193-20.437-13.842-24.196-26.017
	c-2.639-8.548-7.693-13.896-14.856-18.511c-22.409-14.439-41.74-32.388-58.199-53.319c-12.854-16.348-21.282-34.835-24.969-55.388
	C31.719,119.046,31.719,114.942,31.719,110.838z"/>
<path fill="#fff" d="M447.594,24.654c6.261,5.812,8.058,13.001,8.189,21.458
	c0.298,19.081,0.563,38.245,2.55,57.196c2.404,22.938,13.396,42.227,29.382,59.03c-36.047-22.313-73.131-42.17-114.047-51.441
	c11.135-18.242,21.743-36.507,33.251-54.186c8.628-13.253,20.07-23.994,33.834-32.057C443.033,24.654,445.313,24.654,447.594,24.654
	z"/>
<path fill="#fff" d="M550.129,305.572c2.263-9.161,6.041-14.653,16.155-16.254
	c11.5-1.82,22.655-6.228,33.706-10.212c2.988-1.077,5.06-4.694,7.552-7.145c-2.636-2.575-4.828-6.258-7.988-7.521
	c-10.518-4.206-21.411-7.46-32.094-11.268c-2.7-0.963-5.149-2.63-7.714-3.975c0.016-0.765,0.03-1.531,0.046-2.297
	c1.871-0.215,3.978-1.105,5.577-0.545c30.785,10.771,62.438,13.845,94.8,11.208c29.27-2.384,58.526-5,87.833-6.782
	c9.571-0.582,19.28,1.133,29.654,1.848c-15.431-14.018-36.679-9.133-53.971-17.981c11.012-5.833,16.624-16.229,22.916-26.084
	c19.643-30.763,40.642-60.522,65.977-86.943c4.521-4.717,9.962-8.602,15.24-12.519c1.698-1.261,4.245-1.939,6.387-1.901
	c2.78,0.05,5.542,1.082,8.312,1.69c-0.636,2.745-0.868,5.669-2.001,8.191c-1.759,3.917-4.769,7.361-6.007,11.387
	c-0.766,2.485,0.799,5.674,1.268,8.554c0.352,2.152,1.706,5.231,0.769,6.34c-14.184,16.794-16.79,38.024-22.214,58.045
	c-3.669,13.539-6.966,27.438-8.037,41.361c-1.554,20.205,3.936,39.179,15.388,56.229c3.672,5.468,7.405,11.024,10.056,17.007
	c1.85,4.177,2.828,9.209,2.535,13.753c-0.379,5.879,1.67,9.599,5.633,13.704c4.634,4.801,8.66,10.521,11.64,16.496
	c2.948,5.912-0.301,10.394-6.712,9.183c-6.764-1.277-14.07-3.201-19.542-7.089c-13.115-9.319-25.851-19.349-37.711-30.213
	c-15.428-14.132-29.623-29.598-44.817-43.998c-8.002-7.585-17.25-10.391-28.715-6.167c-31.328,11.542-63.515,20.941-94.23,33.877
	c-14.292,6.019-26.468,5.939-39.899,1.017C570.132,312.981,560.36,309.351,550.129,305.572z"/>
<path fill="#fff" d="M201.708,122.576c-0.177,2.483-0.042,5.037-0.591,7.435
	c-1.462,6.386-7.622,9.641-13.587,7.427c-9.448-3.507-13.831-17.343-8.167-25.694c3.479-5.129,8.174-6.91,14.128-5.213
	c5.652,1.61,7.674,5.872,7.989,11.277c0.092,1.581,0.014,3.172,0.014,4.759C201.566,122.569,201.637,122.572,201.708,122.576z"/>
<path fill="#fff" d="M669.575,236.037c-16.577-2.206-33.947,0.311-50.746-8.678
	c8.439-5.708,15.326-10.772,22.612-15.172c6.489-3.919,9.765-1.995,9.852,5.413c0.08,6.892,4.322,10.736,9.518,13.926
	C663.603,233.24,666.646,234.546,669.575,236.037z"/>
</svg>
