<?xml version="1.0" encoding="utf-8"?>
<!-- Generator: Adobe Illustrator 18.1.1, SVG Export Plug-In . SVG Version: 6.00 Build 0)  -->
<svg version="1.1" id="Слой_1" xmlns="http://www.w3.org/2000/svg" xmlns:xlink="http://www.w3.org/1999/xlink" x="0px" y="0px"
	 viewBox="0 0 1024 378.966" enable-background="new 0 0 1024 378.966" xml:space="preserve">
<path fill="#fff"      d="
	M809.217,291.722c0,0,5.068,10.769,11.086,9.502c0,0,4.118,6.018,6.018,6.335c0,0-13.936,1.584-20.588,1.267
	c0,0-18.688-0.633-24.072,4.751c0,0-19.321-5.068-27.239,1.584c0,0-9.502,1.9-8.552,10.452c0,0,0.95,6.018,1.9,7.602
	c0,0,2.217,7.602,4.118,8.552c0,0,0.633,9.502,5.701,13.936c0,0,3.167,3.801,9.819,4.434c0,0,11.086,10.136,29.14,3.484
	c0,0,7.918-3.801,13.936-1.267c0,0,3.167,0.95,15.837-3.484l14.887-3.801c0,0,8.869,0.95,13.303-0.317c0,0,2.09,0.507,6.018,4.118
	c0,0,5.385,5.068,22.805,3.801c0,0,14.253,3.167,30.723-1.584c0,0,13.62-1.9,26.606-12.986c0,0,5.385-6.018,10.136-13.936
	c0,0,6.651-9.819,16.787-10.769c0,0,10.136,0.633,22.172-13.62c0,0,3.167-4.434,7.918-1.9c0,0,7.285,2.851,12.036-1.9
	c0,0,6.335-2.534,8.869-7.285c0,0,1.267-6.018,0-6.968c0,0-1.9-7.285-6.018-9.502c0,0,0.95-12.669-20.588-26.289
	c0,0-9.819-7.602-19.638-4.751c0,0-10.769,2-18.054,13.086c0,0-6.651,4.968-10.452,10.353c0,0-8.552,5.385-20.271-3.167
	c0,0-26.289-41.492-57.963-73.8c0,0-34.841-34.208-69.049-53.212c0,0-31.04-46.877-35.791-57.646c0,0-26.289-51.311-44.977-65.881
	c0,0-12.669-13.303-19.954-12.669c0,0-0.584,6.968,1,10.452c0,0,2.484,10.452,3.118,16.787c0,0,3.388,16.718,3.484,25.972
	c0,0-0.633,6.335-0.317,9.185c0,0-0.317,6.118-3.484,10.235c0,0-6.335,9.502-5.701,12.353c0,0-20.905,7.185-22.172,10.669
	c0,0-8.869,1.267-11.403,3.801c0,0-21.538-1.267-26.289,1.267c0,0,23.755,6.018,28.506,9.185c0,0-77.6,3.801-133.029,21.221
	c0,0-67.148,22.488-85.836,28.19c0,0-42.443,14.57-54.479,14.57c0,0-49.094,0.34-60.813,4.921c0,0-5.385,1.097,0,4.264
	c0,0,5.701,3.484,0.317,5.385c0,0-22.488,12.669-34.208,15.52c0,0-17.737,1.584-21.221,3.801c0,0,9.502,0.9,41.492,1.217
	l-63.981,31.407c0,0-57.329-6.335-96.605-3.484c0,0-39.343,0.801-99.206,29.307c0,0-42.692,18.203-50.61,30.556
	c0,0,1.267,2.217,9.185,0c0,0,15.52-2.217,26.923,0.633c0,0,11.086,3.801,19.638,0.317c0,0,8.552-6.018,12.353-10.452
	c0,0,18.054-7.918,33.483-6.084c0,0,34.932,4.5,44.751,2.917c0,0,24.705,5.385,32.624,6.651c0,0,10.769,11.402,13.936,12.036
	c0,0-0.633,22.172,1.267,23.438c0,0,1.9,11.719-0.633,19.004c0,0-4.118,13.62-2.534,17.737c0,0,5.385,1.9,26.606-25.339
	c0,0,24.072-33.257,31.674-55.746c0,0,9.819-15.203,72.216-31.357c0,0-6.018,10.136-11.719,13.936c0,0,15.203-4.751,21.538-8.552
	c0,0,11.402-2.217,15.52-0.95c0,0,11.086,3.167,21.538,2.217c0,0,22.905,1.267,19.737,12.669l-2.95,7.918
	c0,0,21.221-8.285,45.927-38.058c0,0,17.737-2.484,37.375-8.502c0,0,49.411-14.887,68.732-12.986c0,0,2.086,2.851-23.504,12.036
	c0,0,27.622,4.434,39.658,13.62c0,0,13.579-3.918,29.773-11.719c0,0,17.737-8.552,27.556-5.118c0,0,51.628,24.122,60.497,25.389
	c0,0,7.602,11.402,5.701,17.421c0,0-1.267,8.235-11.403,15.52c0,0-9.819,4.751-12.669,13.62c0,0-2.851,4.751-6.651,6.018
	c0,0-2.534,1.267-2.534,4.118c0,0,3.167,4.434,37.375-5.385c0,0,76.65-23.755,87.736-36.741c0,0,3.484,0.633,4.434,0.633
	c0,0,7.602,8.235,12.669,5.701c0,0,5.576,4.757,10.452,6.146C800.665,287.732,804.466,292.356,809.217,291.722z"/>
</svg>
