<?xml version="1.0" encoding="utf-8"?>
<!-- Generator: Adobe Illustrator 18.1.1, SVG Export Plug-In . SVG Version: 6.00 Build 0)  -->
<svg version="1.1" id="Слой_1" xmlns="http://www.w3.org/2000/svg" xmlns:xlink="http://www.w3.org/1999/xlink" x="0px" y="0px"
	 viewBox="0 0 1024 458.226" enable-background="new 0 0 1024 458.226" xml:space="preserve">
<path fill="#fff"      d="
	M1011.525,104.52c0,0-31.63,0-68.682-6.326c0,0-155.438-23.045-250.328-9.489c0,0-115.675,11.748-140.527,10.393
	c0,0-22.723-20.333-36.665-43.83c0,0-19.817-33.437-50.995-46.541c0,0-13.104-4.519-14.911,9.941c0,0-4.067,23.948,5.874,52.867
	c0,0,7.23,35.697-1.356,49.252c0,0-10.845,11.296-10.845,18.074c0,0-134.653,54.223-202.431,99.86c0,0-16.719-5.422-12.2,5.874
	c0,0-51.06,29.822-55.126,32.985c0,0,0,0-19.882-16.267c0,0-53.319-48.8-124.712-82.238c0,0-24.852-9.941-19.882-0.904
	c0,0,6.326,14.911,12.652,17.17c0,0,2.711,12.2,7.23,14.459l5.874,0.904c0,0-1.807,4.97,5.422,9.941c0,0,43.83,52.415,56.03,91.727
	c0,0,4.97,25.319-2.259,71.627c0,0-8.326,40.433-5.163,63.93c0,0-0.259,9.037,9.23,0c0,0,49.704-54.674,62.808-98.956
	c0,0,9.489-36.6,12.2-42.023c0,0,4.067-7.682,15.815-6.778l48.348,0.904c0,0,0.452,4.519-2.711,9.037c0,0-0.452,4.519,10.845-4.067
	l4.067-2.259c0,0,60.549,1.807,75.008-1.356c0,0-2.711,5.422-4.067,8.133c0,0-8.133,9.748,7.23,2.97c0,0,14.007-6.133,21.237-9.748
	l28.919,1.356c0,0,8.133,9.941,17.622,4.519c0,0,0.904-4.519,6.778-5.422c0,0,45.185,5.874,196.105-20.333
	c0,0-10.941,15.815-3.711,22.593c0,0,7.326,9.941,29.467-3.807c0,0,23.496-14.267,29.371-17.882c0,0-4.259,14.459,2.067,19.882
	c0,0,5.163,3.519,13.748,0.97c0,0,30.726-5.941,44.734-52.03c0,0,4.519-7.682,23.948-10.845c0,0,73.652-9.941,102.119-23.948
	l55.126-29.371c0,0,28.082-17.978,36.667-21.141c0,0,11.584-5.518,6.711-10.941c0,0-3.362-1.545-5.58-1.545
	c0,0-1.584-5.385-4.751-5.701c0,0,1.584,3.801-0.317,5.701c0,0-1.584-4.434-3.801-5.385c0,0,1.584,4.751-1.584,5.385
	c0,0-2.534-4.701-4.751-5.335c0,0,1.9,5.335-2.217,5.968l-4.434-3.167c0,0,1.9-6.018,19.004-6.335c0,0,19.004,0.95,36.425-7.285
	c0,0,28.823-11.086,40.225-22.805C1006.544,116.884,1023.331,105.798,1011.525,104.52z"/>
</svg>
