<svg xmlns="http://www.w3.org/2000/svg" xmlns:xlink="http://www.w3.org/1999/xlink" version="1.1" x="0px" y="0px" viewBox="0 0 100 125" enable-background="new 0 0 200 200" xml:space="preserve"><path fill="#FFFFFF" d="M80.797,98.833c-14-24.404-27.85-25.977-30.569-25.977c-0.159,0-0.259,0.022-0.292,0.026l-0.184,0.021  l-0.2-0.011c-0.015-0.001-0.114-0.038-0.274-0.038c-2.72,0-16.568,1.573-30.569,25.978H80.797z"/><path fill="#FFFFFF" d="M31.618,69.03l1.237,6.19c1.932-1.449,3.77-2.586,5.472-3.472l1.825-9.119l1.523,7.608  c2.793-1.067,5.022-1.441,6.44-1.561l1.637-8.183l1.637,8.183c1.418,0.119,3.65,0.493,6.445,1.562l1.521-7.609l1.824,9.12  c1.702,0.886,3.539,2.021,5.472,3.472l1.239-6.191l1.721,8.604c3.21,2.839,6.61,6.563,10.048,11.456  c-1.458-5.72-3.607-12.719-6.595-19.27l-0.908,4.543l-2.074-10.375c-1.235-2.147-2.578-4.172-4.038-6.003l-1.355,6.776  l-2.103-10.511c-1.531-1.401-3.168-2.577-4.916-3.477l-1.517,7.586l-1.781-8.909c-1.47-0.417-3.009-0.643-4.62-0.643  s-3.148,0.225-4.619,0.641l-1.782,8.911l-1.518-7.59c-1.746,0.898-3.383,2.073-4.913,3.473l-2.104,10.519l-1.357-6.784  c-1.458,1.827-2.799,3.846-4.031,5.989l-2.08,10.396l-0.911-4.555c-2.99,6.557-5.14,13.563-6.597,19.291  c3.438-4.9,6.844-8.627,10.057-11.468L31.618,69.03z"/><path fill="#FFFFFF" d="M10.084,98.833h3.266c1.604-9.151,10.593-54.36,36.402-54.36c25.811,0,34.8,45.208,36.402,54.36h3.241  V84.405c0-32.026-14.546-61.952-39.655-82.375C24.63,22.453,10.084,52.379,10.084,84.405V98.833z"/></svg>