<?xml version="1.0" encoding="utf-8"?>
<!-- Generator: Adobe Illustrator 18.1.1, SVG Export Plug-In . SVG Version: 6.00 Build 0)  -->
<svg version="1.1" id="Слой_1" xmlns="http://www.w3.org/2000/svg" xmlns:xlink="http://www.w3.org/1999/xlink" x="0px" y="0px"
	 viewBox="0 0 1024 351.608" enable-background="new 0 0 1024 351.608" xml:space="preserve">
<path fill="#fff"      d="
	M1014.825,9.65c0,0-17.805,4.985-55.552,48.43c0,0-29.912,29.912-44.156,42.732c0,0-12.107,11.395-35.61,43.444
	c0,0-20.654,22.79-30.625,24.927l-66.235-3.561l-12.107-11.395c0,0-4.985-16.381-9.259-17.805c0,0-4.985-2.849-34.898,17.093
	c0,0-9.444,3.795-17.139,2.833c0,0-82.728-2.886-86.095-2.886c0,0,2.886-1.924,4.329-4.329c0,0-4.329-2.405-12.024-11.062
	c0,0-9.139-11.543-11.543-33.187c0,0-3.848-25.492-10.101-30.302c0,0-24.53-3.367-41.364,11.062c0,0-17.796,12.024-31.745,26.935
	c0,0-29.821,28.378-44.731,32.706c0,0-57.709,6.799-103.891,13.467c0,0-98.6,9.139-151.508,27.416c0,0-28.398,10.705-41.149,17.391
	c0,0-90.157,34.073-108.916,39.364c0,0-50.503,13.467-61.084,28.378c0,0-9.62,8.177,0,12.986c0,0,13.467,20.201,47.136,25.011
	c0,0,9.139,0,15.391,3.848c0,0,34.63,13.948,93.31,15.391c0,0,59.16,6.253,121.206-14.91c0,0,45.693,28.859,70.223,29.821
	c0,0,25.011,3.253,38.478-3c0,0-1.443-2.772-5.291-4.696c0,0,0.481-12.986-17.796-26.935c0,0-10.101-9.139-15.391-14.91l5.772-1.443
	c0,0,39.44,18.758,59.16,18.277c0,0,12.024-0.481,15.872-2.405c0,0-0.962-8.177-25.011-16.834c0,0-7.215-6.734-10.582-7.215
	c0,0,87.057-12.505,131.307-16.353c0,0,22.125-0.962,25.011-1.924c0,0,34.149,12.024,56.755,13.948c0,0,14.948,1.848,19.758-3.924
	c0,0-8.696-8.101-0.519-20.125l-3.367-3.367c0,0,8.658-3.367,12.024-7.215c0,0,81.766-9.139,97.157-13.467
	c0,0,8.177-0.962,14.429,2.886c0,0,23.087,16.834,41.364,12.024c0,0,1.924-6.253,0.962-15.872c0,0,7.215-12.024,6.253-17.796
	l53.388-13.948c0,0,12.024-2.886,28.378,18.758c5.616,6.891,20.086,29.494,32.225,50.503c5.509,7.398,12.552,22.127,19.239,28.859
	c0,0,8.177,8.177,18.758,9.139c0,0,5.291-15.872,1.924-21.163c0,0,6.253-25.973-2.886-42.807c0,0-10.581-35.111-6.734-54.831
	c0,0,11.75-46.878,26.639-70.701c0,0,25.478-46.324,26.802-56.581c0,0-5.956-1.324-3.971-2.978l4.632-0.662
	C1001.431,56.688,1029.212,5.957,1014.825,9.65z"/>
</svg>
