<svg xmlns="http://www.w3.org/2000/svg" xmlns:xlink="http://www.w3.org/1999/xlink" version="1.1" x="0px" y="0px" viewBox="0 0 100 125" enable-background="new 0 0 100 100" xml:space="preserve"><g><path fill="#fff" d="M95.011,39.886l-10.019,6.851c-1.179,0.957-2.652,3.167-2.652,3.167c-1.104,2.211-3.02,1.989-3.02,1.989   c-0.959,0-5.305-1.327-5.305-1.327c-0.296-0.368-0.296-1.473-0.296-1.473c-0.736,0.074-1.767,0.958-1.767,0.958   c-4.052-1.252-14.735-3.979-14.735-3.979c-0.958-0.146-2.21-2.209-2.21-2.209c-1.4-1.401-1.104-7.515-1.104-7.515   c-1.105,0-2.138,0.664-2.138,0.664c-0.958,1.03-3.389,2.357-3.389,2.357c-1.621,1.031-2.726,3.093-2.726,3.093   c-0.885,1.843-5.304,1.621-5.304,1.621c-9.652,0.148-18.198,1.989-18.198,1.989c-7.735,1.623-14.512,4.936-14.512,4.936   c-1.917,0.811-0.811,1.475-0.811,1.475c2.209,1.989,5.083,2.137,5.083,2.137c1.989,0.294,3.905-0.147,3.905-0.147l-1.989,1.178   c0.442,1.032,1.989,1.474,1.989,1.474c8.694,2.727,20.407,2.433,20.407,2.433c5.672,6.703,10.241,7.882,10.241,7.882   c4.42,1.252,3.535-0.295,3.535-0.295c-0.22-0.736-1.62-3.167-1.62-3.167c-0.295-0.296-0.515-1.032-0.515-1.032s0,0.516-0.074-0.295   c-0.074-0.81-0.811-1.769-0.811-1.769c-0.222-0.073-0.736-1.252-0.736-1.252c4.494,0.222,11.64-0.811,11.64-0.811   c1.03-0.368,6.557-1.326,6.557-1.326c0.59,0,2.137,0.664,2.137,0.664c1.031,0.516,2.651,0.441,2.651,0.441l-0.956-1.252   l5.378-1.621l1.473,1.179l0.368-1.473c0.368-1.032,3.905-0.958,3.905-0.958c1.399,0,1.915,1.326,1.915,1.326   c0.589,1.104,3.39,3.83,3.39,3.83c0.811,0.59,2.431,2.063,2.431,2.063c2.063,1.989,4.126,1.549,4.126,1.549   c0.663-0.223,0-1.106,0-1.106c-0.737-0.442-0.884-1.547-0.884-1.547c0-0.662-0.736-1.326-0.736-1.326   c0-1.104-0.959-4.052-0.959-4.052c-0.736-1.179-0.073-3.168-0.073-3.168c0.736-1.843,4.861-7.589,4.861-7.589   c0.517-0.663,0.442-1.179,0.442-1.179l1.843-0.22l-0.222-1.179l1.179-1.917C97.074,38.927,95.011,39.886,95.011,39.886z    M11.964,52.115c-0.296,0-0.534-0.363-0.534-0.811c0-0.448,0.238-0.811,0.534-0.811c0.294,0,0.534,0.362,0.534,0.811   C12.499,51.752,12.259,52.115,11.964,52.115z"/></g></svg>
